<svg xmlns="http://www.w3.org/2000/svg" width="140" height="140" viewBox="0 0 140 140">
<g>
<path d="M 83.20,77.58 L 84.27,78.48 L 84.92,79.13 L 86.30,80.57 L 87.05,81.44 L 88.59,83.25 L 89.36,84.25 L 92.09,87.77 L 94.23,90.53 L 95.37,92.00 L 97.69,94.96 L 98.81,96.40 L 101.01,99.21 L 101.98,100.44 L 104.70,103.98 L 106.30,106.11 L 106.94,107.00 L 108.09,108.62 L 108.45,109.18 L 108.76,109.68 L 108.86,109.85 L 109.00,110.14 L 109.00,110.19 L 108.91,110.32 L 108.75,110.37 L 108.35,110.48 L 108.05,110.53 L 106.57,110.70 L 105.52,110.77 L 103.25,110.88 L 101.93,110.91 L 99.19,110.97 L 97.76,110.97 L 94.90,110.96 L 93.53,110.93 L 90.86,110.85 L 89.72,110.79 L 87.59,110.66 L 86.84,110.56 L 86.15,110.47 L 85.90,110.41 L 85.48,110.30 L 85.39,110.23 L 85.00,109.87 L 84.58,109.43 L 84.30,109.13 L 83.02,107.66 L 82.16,106.65 L 80.33,104.45 L 79.29,103.17 L 77.12,100.49 L 75.97,99.05 L 67.67,88.60 L 74.08,82.82 L 76.70,80.57 L 78.36,79.25 L 79.09,78.73 L 80.47,77.78 L 80.99,77.48 L 81.90,77.02 L 82.13,77.02 M 115.67,32.03 L 118.39,32.09 L 119.48,32.12 L 121.45,32.21 L 122.05,32.26 L 122.60,32.31 L 122.76,32.33 L 123.00,32.39 L 123.00,32.42 L 122.71,32.77 L 122.23,33.25 L 121.86,33.60 L 121.05,34.38 L 120.53,34.87 L 119.42,35.91 L 118.77,36.51 L 117.40,37.77 L 116.63,38.47 L 115.04,39.92 L 114.18,40.71 L 110.57,43.98 L 108.58,45.76 L 104.57,49.35 L 102.59,51.10 L 98.70,54.56 L 96.94,56.11 L 95.22,57.62 L 94.44,58.30 L 92.92,59.63 L 92.26,60.21 L 90.99,61.30 L 90.48,61.75 L 89.53,62.56 L 89.18,62.85 L 84.20,67.02 L 79.16,60.60 L 74.11,54.19 L 99.03,32.00 L 111.02,32.00 Z" fill="rgba(0,174,236,1)"/>
<path d="M 77.73,0.00 L 80.02,0.00 L 84.18,0.01 L 86.19,0.01 L 89.82,0.02 L 91.57,0.03 L 94.72,0.04 L 96.24,0.05 L 98.94,0.08 L 100.25,0.10 L 102.56,0.13 L 103.67,0.15 L 105.62,0.20 L 106.56,0.23 L 108.21,0.30 L 109.79,0.37 L 112.19,0.56 L 113.29,0.67 L 115.00,0.94 L 119.22,2.16 L 120.94,2.79 L 124.51,4.76 L 126.27,5.83 L 129.64,8.47 L 131.27,9.84 L 134.09,12.83 L 134.74,13.59 L 135.88,15.11 L 137.30,17.39 L 137.57,17.89 L 138.02,18.85 L 138.23,19.35 L 138.56,20.58 L 138.72,21.27 L 138.96,23.16 L 139.02,23.69 L 139.12,24.95 L 139.17,25.61 L 139.25,27.16 L 139.29,27.98 L 139.36,29.87 L 139.39,30.86 L 139.45,33.15 L 139.47,34.35 L 139.52,37.07 L 139.54,38.50 L 139.58,41.71 L 139.60,43.38 L 139.64,47.13 L 139.66,49.08 L 139.69,53.41 L 139.70,55.66 L 139.74,60.62 L 139.79,68.83 L 140.07,116.16 L 137.61,121.55 L 137.27,122.29 L 136.28,124.00 L 135.74,124.88 L 134.48,126.70 L 133.83,127.60 L 132.45,129.31 L 130.43,131.52 L 129.34,132.58 L 127.61,134.29 L 126.77,135.09 L 125.13,136.34 L 124.28,136.91 L 122.19,137.77 L 121.62,137.97 L 120.30,138.29 L 119.60,138.45 L 117.98,138.70 L 117.12,138.82 L 115.13,139.02 L 114.09,139.11 L 111.66,139.25 L 110.39,139.32 L 107.47,139.42 L 105.93,139.46 L 102.44,139.53 L 100.61,139.56 L 96.48,139.60 L 94.33,139.62 L 89.49,139.65 L 86.98,139.66 L 81.36,139.68 L 72.00,139.73 L 69.61,139.74 L 65.16,139.75 L 62.98,139.76 L 58.94,139.77 L 56.97,139.78 L 53.33,139.78 L 51.55,139.78 L 48.28,139.78 L 46.69,139.77 L 43.78,139.76 L 42.36,139.75 L 39.77,139.73 L 38.52,139.72 L 36.24,139.69 L 35.14,139.67 L 33.16,139.63 L 31.24,139.59 L 28.19,139.47 L 26.79,139.41 L 24.63,139.25 L 23.65,139.16 L 22.21,138.95 L 21.57,138.84 L 20.70,138.58 L 19.63,138.19 L 17.54,137.19 L 16.50,136.65 L 14.49,135.38 L 13.50,134.72 L 11.62,133.24 L 10.70,132.47 L 9.00,130.82 L 8.18,129.98 L 6.70,128.21 L 6.00,127.31 L 4.81,125.47 L 4.25,124.55 L 3.38,122.69 L 2.48,119.92 L 2.31,119.12 L 1.76,117.86 L 1.62,117.59 L 1.33,117.23 L 0.92,117.00 L 0.88,117.00 L 0.81,116.74 L 0.78,116.57 L 0.71,115.98 L 0.68,115.65 L 0.61,114.76 L 0.58,114.28 L 0.52,113.11 L 0.47,111.87 L 0.37,108.64 L 0.32,106.91 L 0.24,102.83 L 0.20,100.70 L 0.14,95.95 L 0.11,93.51 L 0.07,88.26 L 0.03,82.92 L 0.01,71.49 L 0.01,65.77 L 0.06,54.61 L 0.08,51.90 L 0.13,46.78 L 0.16,44.28 L 0.22,39.71 L 0.26,37.51 L 0.35,33.66 L 0.40,31.84 L 0.50,28.89 L 0.53,28.22 L 0.59,27.07 L 0.62,26.53 L 0.69,25.66 L 0.72,25.27 L 0.79,24.71 L 0.90,24.24 L 1.02,24.00 L 1.39,23.21 L 1.59,22.77 L 2.08,21.69 L 3.65,18.00 L 4.34,16.30 L 6.33,13.18 L 7.41,11.66 L 10.12,8.95 L 11.55,7.65 L 14.90,5.41 L 20.59,2.66 L 27.54,0.00 L 73.01,0.00 M 81.90,77.02 L 80.99,77.48 L 80.47,77.78 L 79.09,78.73 L 78.36,79.25 L 76.70,80.57 L 74.08,82.82 L 67.67,88.60 L 75.97,99.05 L 77.12,100.49 L 79.29,103.17 L 80.33,104.45 L 82.16,106.65 L 83.02,107.66 L 84.30,109.13 L 84.58,109.43 L 85.00,109.87 L 85.39,110.23 L 85.48,110.30 L 85.90,110.41 L 86.15,110.47 L 86.84,110.56 L 87.59,110.66 L 89.72,110.79 L 90.86,110.85 L 93.53,110.93 L 94.90,110.96 L 97.76,110.97 L 99.19,110.97 L 101.93,110.91 L 103.25,110.88 L 105.52,110.77 L 106.57,110.70 L 108.05,110.53 L 108.35,110.48 L 108.75,110.37 L 108.91,110.32 L 109.00,110.19 L 109.00,110.14 L 108.86,109.85 L 108.76,109.68 L 108.45,109.18 L 108.09,108.62 L 106.94,107.00 L 106.30,106.11 L 104.70,103.98 L 101.98,100.44 L 101.01,99.21 L 98.81,96.40 L 97.69,94.96 L 95.37,92.00 L 94.23,90.53 L 92.09,87.77 L 89.36,84.25 L 88.59,83.25 L 87.05,81.44 L 86.30,80.57 L 84.92,79.13 L 84.27,78.48 L 83.20,77.58 L 82.13,77.02 M 32.88,32.19 L 23.26,32.50 L 31.38,42.72 L 34.27,46.35 L 36.06,48.61 L 36.89,49.66 L 40.06,53.67 L 41.41,55.38 L 43.95,58.62 L 45.01,59.98 L 47.00,62.53 L 47.80,63.58 L 49.29,65.52 L 49.86,66.29 L 50.91,67.70 L 51.28,68.23 L 51.94,69.18 L 52.15,69.52 L 52.48,70.09 L 52.55,70.26 L 52.51,70.93 L 52.19,71.56 L 51.83,72.01 L 50.99,73.02 L 50.32,73.71 L 48.81,75.23 L 47.76,76.23 L 46.66,77.27 L 46.02,77.86 L 44.69,79.08 L 43.93,79.77 L 42.36,81.19 L 41.48,81.98 L 39.65,83.62 L 38.63,84.52 L 36.52,86.39 L 35.36,87.42 L 32.96,89.54 L 31.64,90.70 L 28.93,93.09 L 27.45,94.38 L 24.40,97.05 L 22.75,98.50 L 17.91,102.83 L 15.11,105.42 L 14.02,106.49 L 12.98,107.51 L 12.55,107.94 L 11.76,108.76 L 11.46,109.09 L 10.95,109.68 L 10.82,109.87 L 10.62,110.20 L 10.65,110.25 L 11.06,110.45 L 11.64,110.54 L 13.01,110.70 L 13.98,110.77 L 16.07,110.88 L 17.32,110.92 L 19.91,110.96 L 21.31,110.96 L 26.29,110.85 L 28.92,110.69 L 29.96,110.55 L 31.88,110.24 L 32.64,110.02 L 34.05,109.53 L 34.64,109.21 L 36.12,108.25 L 37.46,107.27 L 38.32,106.59 L 40.16,105.12 L 41.29,104.19 L 43.67,102.20 L 45.07,101.00 L 48.01,98.47 L 49.70,97.00 L 53.24,93.90 L 55.24,92.13 L 59.39,88.45 L 61.72,86.38 L 66.53,82.08 L 69.18,79.69 L 78.99,70.88 L 71.31,61.19 L 67.48,56.36 L 65.17,53.45 L 64.13,52.14 L 62.12,49.61 L 61.22,48.48 L 59.48,46.31 L 58.71,45.35 L 57.22,43.50 L 56.56,42.69 L 55.30,41.14 L 54.74,40.47 L 53.68,39.20 L 53.21,38.65 L 52.32,37.61 L 51.93,37.17 L 50.51,35.63 L 49.96,35.11 L 48.95,34.22 L 48.53,33.95 L 47.02,33.20 L 46.09,32.93 L 43.94,32.55 L 41.93,32.35 L 40.73,32.28 L 35.53,32.10 M 0.61,42.32 L 0.60,42.52 L 0.59,42.74 L 0.57,43.26 L 0.57,43.64 L 0.55,44.46 L 0.55,44.99 L 0.53,46.12 L 0.53,46.79 L 0.52,48.21 L 0.51,49.03 L 0.50,50.74 L 0.50,51.70 L 0.49,53.69 L 0.48,54.78 L 0.47,59.42 L 0.47,62.13 L 0.46,67.80 L 0.46,71.00 L 0.46,77.16 L 0.47,79.87 L 0.48,85.03 L 0.48,87.22 L 0.49,89.34 L 0.50,90.30 L 0.51,92.15 L 0.51,92.97 L 0.52,94.53 L 0.53,95.21 L 0.54,96.48 L 0.55,97.01 L 0.56,97.99 L 0.57,98.36 L 0.58,99.04 L 0.59,99.26 L 0.60,99.62 L 0.61,99.68 L 0.63,99.71 L 0.64,99.61 L 0.65,99.32 L 0.66,99.04 L 0.68,98.42 L 0.69,97.97 L 0.71,97.00 L 0.72,96.38 L 0.74,95.05 L 0.75,94.25 L 0.80,89.11 L 0.83,85.37 L 0.84,83.39 L 0.87,75.21 L 0.87,71.00 L 0.86,62.57 L 0.84,58.61 L 0.82,54.72 L 0.80,52.89 L 0.77,49.35 L 0.75,47.75 L 0.72,45.62 L 0.70,44.47 L 0.69,44.03 L 0.67,43.23 L 0.66,42.96 L 0.65,42.50 L 0.64,42.39 L 0.62,42.27 M 107.02,57.26 L 106.38,57.58 L 105.99,57.82 L 104.29,58.97 L 103.40,59.66 L 101.67,61.08 L 101.04,61.70 L 100.46,62.30 L 100.28,62.53 L 100.00,62.96 L 100.00,63.08 L 100.24,63.68 L 100.61,64.30 L 100.88,64.69 L 102.17,66.41 L 103.00,67.35 L 105.12,69.98 L 105.61,70.69 L 105.76,70.95 L 106.00,71.40 L 106.00,71.51 L 105.64,72.11 L 105.09,72.77 L 104.68,73.19 L 103.79,74.10 L 103.25,74.61 L 102.12,75.66 L 101.50,76.21 L 99.75,77.82 L 98.73,78.85 L 98.32,79.29 L 97.58,80.14 L 97.36,80.46 L 97.00,81.01 L 97.00,81.15 L 97.51,82.54 L 98.27,83.87 L 98.75,84.53 L 99.79,85.80 L 100.31,86.24 L 100.81,86.64 L 101.03,86.77 L 101.45,86.96 L 101.60,86.97 L 102.00,86.82 L 102.42,86.57 L 102.71,86.38 L 104.02,85.45 L 104.90,84.76 L 106.79,83.27 L 107.87,82.36 L 110.11,80.46 L 111.30,79.42 L 119.89,71.85 L 114.20,64.49 L 111.92,61.63 L 110.52,59.95 L 109.93,59.27 L 108.84,58.05 L 108.45,57.67 L 107.80,57.08 L 107.68,57.07 M 99.03,32.00 L 74.11,54.19 L 79.16,60.60 L 84.20,67.02 L 89.18,62.85 L 89.53,62.56 L 90.48,61.75 L 90.99,61.30 L 92.26,60.21 L 92.92,59.63 L 94.44,58.30 L 95.22,57.62 L 96.94,56.11 L 98.70,54.56 L 102.59,51.10 L 104.57,49.35 L 108.58,45.76 L 110.57,43.98 L 114.18,40.71 L 115.04,39.92 L 116.63,38.47 L 117.40,37.77 L 118.77,36.51 L 119.42,35.91 L 120.53,34.87 L 121.05,34.38 L 121.86,33.60 L 122.23,33.25 L 122.71,32.77 L 123.00,32.42 L 123.00,32.39 L 122.76,32.33 L 122.60,32.31 L 122.05,32.26 L 121.45,32.21 L 119.48,32.12 L 118.39,32.09 L 115.67,32.03 L 111.02,32.00 M 62.78,0.14 L 58.93,0.16 L 55.13,0.18 L 53.35,0.20 L 49.89,0.23 L 48.32,0.25 L 46.84,0.27 L 46.23,0.28 L 45.09,0.30 L 44.65,0.31 L 43.86,0.33 L 43.58,0.34 L 43.12,0.35 L 43.01,0.36 L 42.87,0.38 L 42.92,0.39 L 43.09,0.40 L 43.30,0.41 L 43.78,0.43 L 44.13,0.43 L 44.92,0.45 L 45.42,0.45 L 46.50,0.47 L 47.15,0.47 L 48.51,0.48 L 49.30,0.49 L 50.94,0.50 L 51.86,0.50 L 53.77,0.51 L 54.83,0.52 L 59.31,0.53 L 61.93,0.53 L 67.41,0.54 L 70.50,0.54 L 79.09,0.53 L 84.10,0.52 L 86.22,0.52 L 88.28,0.51 L 89.22,0.51 L 91.02,0.50 L 91.81,0.49 L 93.34,0.48 L 94.00,0.47 L 95.25,0.46 L 95.77,0.46 L 96.73,0.44 L 97.10,0.43 L 97.77,0.42 L 97.99,0.41 L 98.35,0.40 L 98.42,0.39 L 98.47,0.37 L 98.38,0.36 L 98.12,0.35 L 97.86,0.34 L 97.27,0.32 L 96.86,0.31 L 95.93,0.29 L 95.34,0.28 L 94.08,0.26 L 93.32,0.25 L 88.40,0.20 L 84.81,0.17 L 82.91,0.16 L 75.03,0.13 L 70.95,0.13 Z" fill="rgba(50,124,82,1)"/>
<path d="M 0.64,42.39 L 0.65,42.50 L 0.66,42.96 L 0.67,43.23 L 0.69,44.03 L 0.70,44.47 L 0.72,45.62 L 0.75,47.75 L 0.77,49.35 L 0.80,52.89 L 0.82,54.72 L 0.84,58.61 L 0.86,62.57 L 0.87,71.00 L 0.87,75.21 L 0.84,83.39 L 0.83,85.37 L 0.80,89.11 L 0.75,94.25 L 0.74,95.05 L 0.72,96.38 L 0.71,97.00 L 0.69,97.97 L 0.68,98.42 L 0.66,99.04 L 0.65,99.32 L 0.64,99.61 L 0.63,99.71 L 0.61,99.68 L 0.60,99.62 L 0.59,99.26 L 0.58,99.04 L 0.57,98.36 L 0.56,97.99 L 0.55,97.01 L 0.54,96.48 L 0.53,95.21 L 0.52,94.53 L 0.51,92.97 L 0.51,92.15 L 0.50,90.30 L 0.49,89.34 L 0.48,87.22 L 0.48,85.03 L 0.47,79.87 L 0.46,77.16 L 0.46,71.00 L 0.46,67.80 L 0.47,62.13 L 0.47,59.42 L 0.48,54.78 L 0.49,53.69 L 0.50,51.70 L 0.50,50.74 L 0.51,49.03 L 0.52,48.21 L 0.53,46.79 L 0.53,46.12 L 0.55,44.99 L 0.55,44.46 L 0.57,43.64 L 0.57,43.26 L 0.59,42.74 L 0.60,42.52 L 0.61,42.32 L 0.62,42.27 Z" fill="rgba(87,147,113,1)"/>
<path d="M 0.66,113.75 L 0.80,114.09 L 0.87,115.00 L 0.66,116.25 L 0.59,116.42 L 0.47,116.54 L 0.41,116.56 L 0.31,116.40 L 0.21,116.17 L 0.16,115.00 L 0.16,114.31 L 0.31,113.60 L 0.35,113.49 L 0.47,113.46 M 75.03,0.13 L 82.91,0.16 L 84.81,0.17 L 88.40,0.20 L 93.32,0.25 L 94.08,0.26 L 95.34,0.28 L 95.93,0.29 L 96.86,0.31 L 97.27,0.32 L 97.86,0.34 L 98.12,0.35 L 98.38,0.36 L 98.47,0.37 L 98.42,0.39 L 98.35,0.40 L 97.99,0.41 L 97.77,0.42 L 97.10,0.43 L 96.73,0.44 L 95.77,0.46 L 95.25,0.46 L 94.00,0.47 L 93.34,0.48 L 91.81,0.49 L 91.02,0.50 L 89.22,0.51 L 88.28,0.51 L 86.22,0.52 L 84.10,0.52 L 79.09,0.53 L 70.50,0.54 L 67.41,0.54 L 61.93,0.53 L 59.31,0.53 L 54.83,0.52 L 53.77,0.51 L 51.86,0.50 L 50.94,0.50 L 49.30,0.49 L 48.51,0.48 L 47.15,0.47 L 46.50,0.47 L 45.42,0.45 L 44.92,0.45 L 44.13,0.43 L 43.78,0.43 L 43.30,0.41 L 43.09,0.40 L 42.92,0.39 L 42.87,0.38 L 43.01,0.36 L 43.12,0.35 L 43.58,0.34 L 43.86,0.33 L 44.65,0.31 L 45.09,0.30 L 46.23,0.28 L 46.84,0.27 L 48.32,0.25 L 49.89,0.23 L 53.35,0.20 L 55.13,0.18 L 58.93,0.16 L 62.78,0.14 L 70.95,0.13 Z" fill="rgba(156,192,171,1)"/>
<path d="M 10.65,110.25 L 10.62,110.20 L 10.82,109.87 L 10.95,109.68 L 11.46,109.09 L 11.76,108.76 L 12.55,107.94 L 12.98,107.51 L 14.02,106.49 L 15.11,105.42 L 17.91,102.83 L 22.75,98.50 L 24.40,97.05 L 27.45,94.38 L 28.93,93.09 L 31.64,90.70 L 32.96,89.54 L 35.36,87.42 L 36.52,86.39 L 38.63,84.52 L 39.65,83.62 L 41.48,81.98 L 42.36,81.19 L 43.93,79.77 L 44.69,79.08 L 46.02,77.86 L 46.66,77.27 L 47.76,76.23 L 48.81,75.23 L 50.32,73.71 L 50.99,73.02 L 51.83,72.01 L 52.19,71.56 L 52.51,70.93 L 52.55,70.26 L 52.48,70.09 L 52.15,69.52 L 51.94,69.18 L 51.28,68.23 L 50.91,67.70 L 49.86,66.29 L 49.29,65.52 L 47.80,63.58 L 47.00,62.53 L 45.01,59.98 L 43.95,58.62 L 41.41,55.38 L 40.06,53.67 L 36.89,49.66 L 36.06,48.61 L 34.27,46.35 L 31.38,42.72 L 23.26,32.50 L 32.88,32.19 L 35.53,32.10 L 40.73,32.28 L 41.93,32.35 L 43.94,32.55 L 46.09,32.93 L 47.02,33.20 L 48.53,33.95 L 48.95,34.22 L 49.96,35.11 L 50.51,35.63 L 51.93,37.17 L 52.32,37.61 L 53.21,38.65 L 53.68,39.20 L 54.74,40.47 L 55.30,41.14 L 56.56,42.69 L 57.22,43.50 L 58.71,45.35 L 59.48,46.31 L 61.22,48.48 L 62.12,49.61 L 64.13,52.14 L 65.17,53.45 L 67.48,56.36 L 71.31,61.19 L 78.99,70.88 L 69.18,79.69 L 66.53,82.08 L 61.72,86.38 L 59.39,88.45 L 55.24,92.13 L 53.24,93.90 L 49.70,97.00 L 48.01,98.47 L 45.07,101.00 L 43.67,102.20 L 41.29,104.19 L 40.16,105.12 L 38.32,106.59 L 37.46,107.27 L 36.12,108.25 L 34.64,109.21 L 34.05,109.53 L 32.64,110.02 L 31.88,110.24 L 29.96,110.55 L 28.92,110.69 L 26.29,110.85 L 21.31,110.96 L 19.91,110.96 L 17.32,110.92 L 16.07,110.88 L 13.98,110.77 L 13.01,110.70 L 11.64,110.54 L 11.06,110.45 M 98.75,84.53 L 98.27,83.87 L 97.51,82.54 L 97.00,81.15 L 97.00,81.01 L 97.36,80.46 L 97.58,80.14 L 98.32,79.29 L 98.73,78.85 L 99.75,77.82 L 101.50,76.21 L 102.12,75.66 L 103.25,74.61 L 103.79,74.10 L 104.68,73.19 L 105.09,72.77 L 105.64,72.11 L 106.00,71.51 L 106.00,71.40 L 105.76,70.95 L 105.61,70.69 L 105.12,69.98 L 103.00,67.35 L 102.17,66.41 L 100.88,64.69 L 100.61,64.30 L 100.24,63.68 L 100.00,63.08 L 100.00,62.96 L 100.28,62.53 L 100.46,62.30 L 101.04,61.70 L 101.67,61.08 L 103.40,59.66 L 104.29,58.97 L 105.99,57.82 L 106.38,57.58 L 107.02,57.26 L 107.68,57.07 L 107.80,57.08 L 108.45,57.67 L 108.84,58.05 L 109.93,59.27 L 110.52,59.95 L 111.92,61.63 L 114.20,64.49 L 119.89,71.85 L 111.30,79.42 L 110.11,80.46 L 107.87,82.36 L 106.79,83.27 L 104.90,84.76 L 104.02,85.45 L 102.71,86.38 L 102.42,86.57 L 102.00,86.82 L 101.60,86.97 L 101.45,86.96 L 101.03,86.77 L 100.81,86.64 L 100.31,86.24 L 99.79,85.80 Z" fill="rgba(252,253,252,1)"/>
</g>
</svg>